<svg width="272" height="272" viewBox="0 0 272 272" fill="none" xmlns="http://www.w3.org/2000/svg">
<path d="M272 136C272 211.111 211.111 272 136 272C60.8893 272 0 211.111 0 136C0 60.8893 60.8893 0 136 0C211.111 0 272 60.8893 272 136ZM39.1031 136C39.1031 189.515 82.4853 232.897 136 232.897C189.515 232.897 232.897 189.515 232.897 136C232.897 82.4853 189.515 39.1031 136 39.1031C82.4853 39.1031 39.1031 82.4853 39.1031 136Z" fill="#B6B6B6"/>
<path d="M136 0C167.464 3.75208e-07 197.955 10.9098 222.277 30.8706C246.6 50.8313 263.248 78.608 269.387 109.468C275.525 140.327 270.773 172.361 255.941 200.11C241.109 227.859 217.114 249.607 188.045 261.648C158.976 273.688 126.631 275.277 96.5213 266.144C66.4118 257.01 40.4007 237.719 22.9201 211.558C5.43948 185.396 -2.42917 153.982 0.654881 122.67C3.73893 91.3568 17.5849 62.0821 39.8335 39.8334L67.4836 67.4836C51.632 83.3352 41.7671 104.193 39.5697 126.502C37.3724 148.812 42.9787 171.193 55.4332 189.833C67.8877 208.473 86.42 222.217 107.872 228.724C129.325 235.232 152.37 234.1 173.081 225.521C193.792 216.942 210.888 201.447 221.455 181.677C232.023 161.906 235.408 139.083 231.035 117.096C226.662 95.1095 214.8 75.3193 197.471 61.0977C180.142 46.8761 158.418 39.1031 136 39.1031L136 0Z" fill="#3C21FF"/>
</svg>
