<svg width="272" height="272" viewBox="0 0 272 272" fill="none" xmlns="http://www.w3.org/2000/svg">
<path d="M272 136C272 211.111 211.111 272 136 272C60.8893 272 0 211.111 0 136C0 60.8893 60.8893 0 136 0C211.111 0 272 60.8893 272 136ZM39.1031 136C39.1031 189.515 82.4853 232.897 136 232.897C189.515 232.897 232.897 189.515 232.897 136C232.897 82.4853 189.515 39.1031 136 39.1031C82.4853 39.1031 39.1031 82.4853 39.1031 136Z" fill="#00D7B0"/>
<path d="M136 0C157.473 2.56061e-07 178.64 5.08449 197.771 14.8374C216.901 24.5902 233.45 38.7343 246.063 56.112C258.677 73.4897 266.996 93.6071 270.34 114.818C273.685 136.029 271.959 157.73 265.305 178.146L228.127 166.028C232.868 151.482 234.097 136.02 231.714 120.908C229.332 105.796 223.404 91.4628 214.417 79.0816C205.431 66.7004 193.64 56.6231 180.01 49.6744C166.38 42.7257 151.299 39.1031 136 39.1031L136 0Z" fill="#3C21FF"/>
</svg>
