<?xml version="1.0" encoding="UTF-8"?>
<svg width="955px" height="136px" viewBox="0 0 955 136" version="1.1" xmlns="http://www.w3.org/2000/svg" xmlns:xlink="http://www.w3.org/1999/xlink">
    <!-- Generator: Sketch 49.3 (51167) - http://www.bohemiancoding.com/sketch -->
    <title>Combined Shape Copy@3x</title>
    <desc>Created with Sketch.</desc>
    <defs></defs>
    <g id="Page-1" stroke="none" stroke-width="1" fill="none" fill-rule="evenodd">
        <path d="M861.326613,27.6059616 C868.662818,23.5204949 876.489897,21.5020672 885.173854,21.4925563 C898.198174,21.5390541 908.768122,25.8105121 918.033377,34.750773 C927.193137,43.7343614 931.584096,54.1731199 931.638996,67.2464021 C931.629308,76.1021216 929.580768,83.8704263 925.479383,90.922242 C921.352162,97.9994202 915.740477,103.523149 908.356907,107.736484 C900.949655,111.945593 893.343254,113.977759 885.173854,113.986213 C876.8193,113.979872 869.061115,111.935025 861.547292,107.725917 C854.032391,103.492502 848.395947,98.0279529 844.306403,91.1082332 C840.249153,84.1980245 838.212455,76.5575888 838.203843,67.8212842 C838.212455,59.0279141 840.253459,51.279688 844.333315,44.2162478 C848.431471,37.1528076 853.993638,31.7062231 861.326613,27.6059616 Z M920.949559,126.93374 C910.336552,132.96049 898.808538,136.013494 886.967268,135.999756 C868.667124,136.046254 849.407837,129.445678 835.975532,116.358658 C822.498014,103.364633 814.94436,86.8526268 815.000337,67.9142798 C814.94436,49.1217668 821.859662,32.7228344 835.289814,19.6315871 C848.594019,6.51392059 865.386016,0 884.709891,0 C904.111274,0 921.185308,6.41141405 934.58209,19.5385915 C948.031619,32.5590353 955.055645,48.6684132 954.999668,67.2115288 C955.00828,79.5915709 952.063033,91.2540673 945.915261,101.865079 C939.78579,112.46341 931.587325,120.920727 920.949559,126.93374 Z M596.358145,9 L622,9 L563.480728,131 L538,131 L596.358145,9 Z M707,127 L707,5 L730,5 L730,127 L707,127 Z M463,67.4980085 C463,61.1490605 468.148511,56 474.499004,56 C480.852485,56 486,61.1490605 486,67.4980085 C486,73.8509395 480.852485,79 474.499004,79 C468.148511,79 463,73.8509395 463,67.4980085 Z M357.641855,131 L332,131 L390.519272,9 L416,9 L357.641855,131 Z M220,126 L220,9 L243,9 L243,126 L220,126 Z M67.00045,0.000243786873 C84.7934691,-0.0462442708 103.03236,6.55611647 116.092436,19.6403916 C129.196472,32.6316906 136.053064,49.14446 135.999685,68.0788346 C136.053064,86.8674058 129.328349,103.269238 116.27246,116.357739 C103.334842,129.474767 87.0092233,136 68.431218,136 L68.2197951,136 C49.3571016,136 32.817967,129.574083 19.7924304,116.452828 C6.71560801,103.431946 -0.0530657787,87.3132685 0.000313278545,68.7740424 C-0.00805990691,56.396597 2.98012065,44.7365469 8.95648177,34.1277609 C14.9150499,23.5316534 23.1291448,15.0761096 33.4731688,9.06330194 C43.7920732,3.03887228 55.48732,-0.0134913211 67.00045,0.00446997394 L67.00045,0.000243786873 Z M107.478522,91.7645 C111.444272,84.7025414 113.428717,76.9559406 113.438136,68.1644149 C113.428717,59.4288863 111.449505,51.7911097 107.505735,44.8823504 C103.529518,37.9640822 98.0482216,32.5006788 90.743664,28.2681525 C83.4359664,24.0599267 75.8927729,22.0155087 67.7686897,22.0091695 C59.82777,22.0176218 52.4300606,24.0493613 45.2291211,28.257587 C38.0512079,32.470039 32.5950309,37.9926089 28.5811352,45.0672461 C24.592359,52.1186392 22.6005875,59.8842579 22.5932609,68.7391764 C22.64664,81.8097164 26.9138246,92.2462853 35.8228939,101.227989 C44.8303482,110.166375 55.10634,114.435881 67.7686897,114.482369 C76.2120006,114.473916 83.8221795,112.455912 90.9582268,108.371302 C98.085901,104.271901 103.494979,98.8264586 107.478522,91.7645 Z" id="Combined-Shape-Copy" fill="#3C21FF"></path>
    </g>
</svg>