<svg xmlns="http://www.w3.org/2000/svg" viewBox="0 0 1119 643"><defs><style>.cls-1{fill:#3c21ff;}</style></defs><g id="Layer_2" data-name="Layer 2"><g id="Layer_1-2" data-name="Layer 1"><path class="cls-1" d="M188,643C84.34,643,0,558.66,0,455a186.93,186.93,0,0,1,21.56-87.37L63.94,388A140.2,140.2,0,0,0,47,455c0,77.75,63.25,141,141,141"/><path class="cls-1" d="M727.5,204.13c103.66,0,188,84.33,188,188a186.93,186.93,0,0,1-21.56,87.37l-42.38-20.41a140.14,140.14,0,0,0,16.94-67c0-77.75-63.25-141-141-141"/><polygon class="cls-1" points="268.16 264 217 264.7 326.84 32.7 378 32 268.16 264"/><polygon class="cls-1" points="1067.84 232 1119 232.7 1009.16 0.7 958 0 1067.84 232"/><circle class="cls-1" cx="517" cy="425" r="23"/></g></g></svg>