<?xml version="1.0" encoding="UTF-8"?>
<svg width="955px" height="136px" viewBox="0 0 955 136" version="1.1" xmlns="http://www.w3.org/2000/svg" xmlns:xlink="http://www.w3.org/1999/xlink">
    <!-- Generator: Sketch 49.3 (51167) - http://www.bohemiancoding.com/sketch -->
    <title>Combined Shape@3x</title>
    <desc>Created with Sketch.</desc>
    <defs></defs>
    <g id="Page-1" stroke="none" stroke-width="1" fill="none" fill-rule="evenodd">
        <g id="Artboard" transform="translate(-510.000000, -130.000000)" fill="#FFFFFF">
            <path d="M1371.32661,157.605962 C1378.66282,153.520495 1386.4899,151.502067 1395.17385,151.492556 C1408.19817,151.539054 1418.76812,155.810512 1428.03338,164.750773 C1437.19314,173.734361 1441.5841,184.17312 1441.639,197.246402 C1441.62931,206.102122 1439.58077,213.870426 1435.47938,220.922242 C1431.35216,227.99942 1425.74048,233.523149 1418.35691,237.736484 C1410.94965,241.945593 1403.34325,243.977759 1395.17385,243.986213 C1386.8193,243.979872 1379.06112,241.935025 1371.54729,237.725917 C1364.03239,233.492502 1358.39595,228.027953 1354.3064,221.108233 C1350.24915,214.198024 1348.21246,206.557589 1348.20384,197.821284 C1348.21246,189.027914 1350.25346,181.279688 1354.33331,174.216248 C1358.43147,167.152808 1363.99364,161.706223 1371.32661,157.605962 Z M1430.94956,256.93374 C1420.33655,262.96049 1408.80854,266.013494 1396.96727,265.999756 C1378.66712,266.046254 1359.40784,259.445678 1345.97553,246.358658 C1332.49801,233.364633 1324.94436,216.852627 1325.00034,197.91428 C1324.94436,179.121767 1331.85966,162.722834 1345.28981,149.631587 C1358.59402,136.513921 1375.38602,130 1394.70989,130 C1414.11127,130 1431.18531,136.411414 1444.58209,149.538591 C1458.03162,162.559035 1465.05564,178.668413 1464.99967,197.211529 C1465.00828,209.591571 1462.06303,221.254067 1455.91526,231.865079 C1449.78579,242.46341 1441.58733,250.920727 1430.94956,256.93374 Z M1106.35815,139 L1132,139 L1073.48073,261 L1048,261 L1106.35815,139 Z M1217,257 L1217,135 L1240,135 L1240,257 L1217,257 Z M973,197.498008 C973,191.149061 978.148511,186 984.499004,186 C990.852485,186 996,191.149061 996,197.498008 C996,203.850939 990.852485,209 984.499004,209 C978.148511,209 973,203.850939 973,197.498008 Z M867.641855,261 L842,261 L900.519272,139 L926,139 L867.641855,261 Z M730,256 L730,139 L753,139 L753,256 L730,256 Z M577.00045,130.000244 C594.793469,129.953756 613.03236,136.556116 626.092436,149.640392 C639.196472,162.631691 646.053064,179.14446 645.999685,198.078835 C646.053064,216.867406 639.328349,233.269238 626.27246,246.357739 C613.334842,259.474767 597.009223,266 578.431218,266 L578.219795,266 C559.357102,266 542.817967,259.574083 529.79243,246.452828 C516.715608,233.431946 509.946934,217.313268 510.000313,198.774042 C509.99194,186.396597 512.980121,174.736547 518.956482,164.127761 C524.91505,153.531653 533.129145,145.07611 543.473169,139.063302 C553.792073,133.038872 565.48732,129.986509 577.00045,130.00447 L577.00045,130.000244 Z M617.478522,221.7645 C621.444272,214.702541 623.428717,206.955941 623.438136,198.164415 C623.428717,189.428886 621.449505,181.79111 617.505735,174.88235 C613.529518,167.964082 608.048222,162.500679 600.743664,158.268153 C593.435966,154.059927 585.892773,152.015509 577.76869,152.009169 C569.82777,152.017622 562.430061,154.049361 555.229121,158.257587 C548.051208,162.470039 542.595031,167.992609 538.581135,175.067246 C534.592359,182.118639 532.600587,189.884258 532.593261,198.739176 C532.64664,211.809716 536.913825,222.246285 545.822894,231.227989 C554.830348,240.166375 565.10634,244.435881 577.76869,244.482369 C586.212001,244.473916 593.82218,242.455912 600.958227,238.371302 C608.085901,234.271901 613.494979,228.826459 617.478522,221.7645 Z" id="Combined-Shape"></path>
        </g>
    </g>
</svg>